<svg xmlns="http://www.w3.org/2000/svg" viewBox="0 0 16 16" shape-rendering="crispEdges">
  <!-- Pixel-art floppy disk with a rainbow label -->
  <rect x="1" y="1" width="13" height="1" fill="#000010"/>
  <rect x="1" y="2" width="1" height="1" fill="#000010"/>
  <rect x="2" y="2" width="1" height="1" fill="#7a7aff"/>
  <rect x="3" y="2" width="2" height="1" fill="#2d2dff"/>
  <rect x="5" y="2" width="7" height="1" fill="#c0c0c0"/>
  <rect x="12" y="2" width="2" height="1" fill="#2d2dff"/>
  <rect x="14" y="2" width="1" height="1" fill="#000010"/>
  <rect x="1" y="3" width="1" height="1" fill="#000010"/>
  <rect x="2" y="3" width="3" height="1" fill="#2d2dff"/>
  <rect x="5" y="3" width="3" height="1" fill="#c0c0c0"/>
  <rect x="8" y="3" width="2" height="1" fill="#2b2b3a"/>
  <rect x="10" y="3" width="2" height="1" fill="#c0c0c0"/>
  <rect x="12" y="3" width="3" height="1" fill="#2d2dff"/>
  <rect x="15" y="3" width="1" height="1" fill="#000010"/>
  <rect x="1" y="4" width="1" height="1" fill="#000010"/>
  <rect x="2" y="4" width="3" height="1" fill="#2d2dff"/>
  <rect x="5" y="4" width="3" height="1" fill="#c0c0c0"/>
  <rect x="8" y="4" width="2" height="1" fill="#2b2b3a"/>
  <rect x="10" y="4" width="2" height="1" fill="#c0c0c0"/>
  <rect x="12" y="4" width="3" height="1" fill="#2d2dff"/>
  <rect x="15" y="4" width="1" height="1" fill="#000010"/>
  <rect x="1" y="5" width="1" height="1" fill="#000010"/>
  <rect x="2" y="5" width="3" height="1" fill="#2d2dff"/>
  <rect x="5" y="5" width="3" height="1" fill="#c0c0c0"/>
  <rect x="8" y="5" width="2" height="1" fill="#2b2b3a"/>
  <rect x="10" y="5" width="2" height="1" fill="#c0c0c0"/>
  <rect x="12" y="5" width="3" height="1" fill="#2d2dff"/>
  <rect x="15" y="5" width="1" height="1" fill="#000010"/>
  <rect x="1" y="6" width="1" height="1" fill="#000010"/>
  <rect x="2" y="6" width="3" height="1" fill="#2d2dff"/>
  <rect x="5" y="6" width="7" height="1" fill="#c0c0c0"/>
  <rect x="12" y="6" width="3" height="1" fill="#2d2dff"/>
  <rect x="15" y="6" width="1" height="1" fill="#000010"/>
  <rect x="1" y="7" width="1" height="1" fill="#000010"/>
  <rect x="2" y="7" width="13" height="1" fill="#2d2dff"/>
  <rect x="15" y="7" width="1" height="1" fill="#000010"/>
  <rect x="1" y="8" width="1" height="1" fill="#000010"/>
  <rect x="2" y="8" width="2" height="1" fill="#2d2dff"/>
  <rect x="4" y="8" width="1" height="1" fill="#ff3333"/>
  <rect x="5" y="8" width="1" height="1" fill="#ff9900"/>
  <rect x="6" y="8" width="1" height="1" fill="#ffee00"/>
  <rect x="7" y="8" width="1" height="1" fill="#33dd33"/>
  <rect x="8" y="8" width="1" height="1" fill="#00ddff"/>
  <rect x="9" y="8" width="1" height="1" fill="#3366ff"/>
  <rect x="10" y="8" width="1" height="1" fill="#cc44ff"/>
  <rect x="11" y="8" width="1" height="1" fill="#ff3333"/>
  <rect x="12" y="8" width="1" height="1" fill="#ff9900"/>
  <rect x="13" y="8" width="1" height="1" fill="#ffee00"/>
  <rect x="14" y="8" width="1" height="1" fill="#2d2dff"/>
  <rect x="15" y="8" width="1" height="1" fill="#000010"/>
  <rect x="1" y="9" width="1" height="1" fill="#000010"/>
  <rect x="2" y="9" width="2" height="1" fill="#2d2dff"/>
  <rect x="4" y="9" width="10" height="1" fill="#ffffff"/>
  <rect x="14" y="9" width="1" height="1" fill="#2d2dff"/>
  <rect x="15" y="9" width="1" height="1" fill="#000010"/>
  <rect x="1" y="10" width="1" height="1" fill="#000010"/>
  <rect x="2" y="10" width="2" height="1" fill="#2d2dff"/>
  <rect x="4" y="10" width="1" height="1" fill="#ffffff"/>
  <rect x="5" y="10" width="8" height="1" fill="#9aa0b5"/>
  <rect x="13" y="10" width="1" height="1" fill="#ffffff"/>
  <rect x="14" y="10" width="1" height="1" fill="#2d2dff"/>
  <rect x="15" y="10" width="1" height="1" fill="#000010"/>
  <rect x="1" y="11" width="1" height="1" fill="#000010"/>
  <rect x="2" y="11" width="2" height="1" fill="#2d2dff"/>
  <rect x="4" y="11" width="10" height="1" fill="#ffffff"/>
  <rect x="14" y="11" width="1" height="1" fill="#2d2dff"/>
  <rect x="15" y="11" width="1" height="1" fill="#000010"/>
  <rect x="1" y="12" width="1" height="1" fill="#000010"/>
  <rect x="2" y="12" width="2" height="1" fill="#2d2dff"/>
  <rect x="4" y="12" width="1" height="1" fill="#ffffff"/>
  <rect x="5" y="12" width="6" height="1" fill="#9aa0b5"/>
  <rect x="11" y="12" width="3" height="1" fill="#ffffff"/>
  <rect x="14" y="12" width="1" height="1" fill="#2d2dff"/>
  <rect x="15" y="12" width="1" height="1" fill="#000010"/>
  <rect x="1" y="13" width="1" height="1" fill="#000010"/>
  <rect x="2" y="13" width="2" height="1" fill="#2d2dff"/>
  <rect x="4" y="13" width="10" height="1" fill="#ffffff"/>
  <rect x="14" y="13" width="1" height="1" fill="#2d2dff"/>
  <rect x="15" y="13" width="1" height="1" fill="#000010"/>
  <rect x="1" y="14" width="15" height="1" fill="#000010"/>
</svg>
